<svg xmlns="http://www.w3.org/2000/svg" viewBox="100 150 1200 465">
<path d="M 107.00 382.50 L 107.00 157.00 L 144.50 157.00 L 181.99 157.00 L 182.25 260.46 L 182.50 363.92 L 195.00 349.26 C201.88,341.19 215.65,324.83 225.62,312.89 C235.59,300.96 250.89,282.75 259.62,272.43 C287.01,240.06 319.29,201.74 326.48,193.09 C328.12,191.11 335.68,182.19 343.30,173.25 L 357.13 157.00 L 403.12 157.00 L 449.10 157.00 L 436.80 171.09 C430.03,178.85 422.92,187.12 421.00,189.48 C419.08,191.85 411.88,200.24 405.01,208.14 C370.27,248.08 290.00,342.21 290.00,343.01 C290.00,343.51 294.79,351.25 300.64,360.21 C306.50,369.17 317.81,386.62 325.78,399.00 C333.75,411.38 344.23,427.58 349.08,435.00 C353.92,442.42 365.08,459.52 373.87,473.00 C382.66,486.48 393.21,502.67 397.31,509.00 C401.41,515.33 412.54,532.42 422.05,547.00 C456.71,600.16 461.00,606.82 461.00,607.41 C461.00,607.75 440.92,607.90 416.37,607.76 L 371.73 607.50 L 351.33 575.50 C340.10,557.90 326.95,537.20 322.10,529.50 C317.25,521.80 307.48,506.39 300.39,495.25 C293.30,484.12 282.13,466.57 275.56,456.25 C269.00,445.94 258.27,429.06 251.72,418.75 C245.16,408.44 239.51,400.02 239.15,400.04 C238.79,400.06 237.15,401.79 235.50,403.90 C233.85,406.00 226.43,414.83 219.00,423.53 C211.57,432.22 200.21,445.60 193.75,453.26 L 182.00 467.18 L 182.00 537.59 L 182.00 608.00 L 144.50 608.00 L 107.00 608.00 L 107.00 382.50 ZM 483.45 595.75 C485.84,589.01 495.92,560.55 505.85,532.50 C515.78,504.45 528.00,470.02 533.00,456.00 C538.00,441.98 545.62,420.60 549.93,408.50 C570.62,350.37 603.36,258.80 605.53,253.00 C606.87,249.43 613.84,229.85 621.03,209.50 C628.21,189.15 635.19,169.57 636.54,165.98 C637.89,162.39 639.00,158.90 639.00,158.23 C639.00,157.28 647.17,157.00 674.88,157.00 C708.20,157.00 710.80,157.13 711.28,158.75 C712.12,161.61 722.96,192.03 737.02,231.00 C744.27,251.07 751.46,271.10 753.00,275.50 C754.55,279.90 761.73,299.92 768.97,320.00 C776.22,340.08 784.77,363.92 787.97,373.00 C791.18,382.08 801.32,410.42 810.51,436.00 C840.25,518.78 857.28,566.43 866.55,592.75 L 871.92 608.00 L 833.54 608.00 L 795.17 608.00 L 775.50 548.99 L 755.83 489.99 L 674.33 490.24 L 592.83 490.50 L 581.99 523.50 C576.03,541.65 567.41,568.08 562.83,582.24 L 554.50 607.97 L 516.81 607.99 L 479.11 608.00 L 483.45 595.75 ZM 735.73 426.73 C735.46,426.04 732.46,416.92 729.05,406.48 C725.64,396.04 716.17,367.02 708.01,342.00 C699.84,316.98 689.26,284.12 684.50,269.00 C679.74,253.88 675.59,240.82 675.29,240.00 C674.71,238.40 672.20,245.75 658.56,289.00 C648.31,321.48 627.05,387.67 619.40,410.92 C616.43,419.95 614.00,427.49 614.00,427.67 C614.00,427.85 641.50,428.00 675.11,428.00 C724.00,428.00 736.12,427.75 735.73,426.73 ZM 910.93 524.25 C910.89,478.19 910.78,376.71 910.68,298.75 L 910.50 157.00 L 924.75 157.00 L 939.00 157.00 L 939.00 382.50 L 939.00 608.00 L 925.00 608.00 L 911.00 608.00 L 910.93 524.25 ZM 983.00 606.72 C983.00,606.02 984.99,599.16 987.42,591.47 C989.85,583.79 992.27,575.92 992.81,574.00 C993.34,572.08 996.80,560.83 1000.49,549.00 C1004.17,537.17 1009.58,519.62 1012.50,510.00 C1015.42,500.38 1021.93,479.23 1026.97,463.00 C1047.30,397.57 1069.63,325.36 1075.53,306.00 C1078.96,294.73 1089.51,260.52 1098.97,230.00 C1108.44,199.48 1117.38,170.55 1118.84,165.73 L 1121.50 156.96 L 1136.92 157.23 L 1152.34 157.50 L 1155.58 167.50 C1157.37,173.00 1163.64,193.02 1169.53,212.00 C1192.35,285.55 1198.27,304.71 1199.99,310.50 C1200.98,313.80 1207.50,334.95 1214.50,357.50 C1221.50,380.05 1229.15,404.80 1231.49,412.50 C1233.84,420.20 1241.47,444.95 1248.46,467.50 C1255.45,490.05 1264.97,520.88 1269.62,536.00 C1274.27,551.12 1280.56,571.60 1283.60,581.50 C1286.64,591.40 1289.75,601.41 1290.50,603.75 L 1291.88 608.00 L 1277.11 608.00 L 1262.35 608.00 L 1257.68 593.25 C1255.12,585.14 1249.50,566.80 1245.21,552.50 C1240.91,538.20 1233.36,513.12 1228.44,496.76 L 1219.50 467.02 L 1136.82 467.01 C1058.93,467.00 1054.10,467.10 1053.61,468.75 C1051.98,474.23 1018.22,586.44 1015.25,596.25 L 1011.69 608.00 L 997.35 608.00 C986.37,608.00 983.00,607.70 983.00,606.72 ZM 1210.32 439.25 C1210.75,438.52 1206.55,423.95 1191.47,374.00 C1174.88,318.99 1170.66,304.91 1167.05,292.50 C1152.81,243.45 1137.61,192.38 1137.07,191.77 C1136.72,191.36 1132.47,204.64 1127.64,221.27 C1122.80,237.89 1117.56,255.77 1115.99,261.00 C1114.42,266.23 1108.13,287.38 1102.01,308.00 C1081.88,375.81 1071.90,409.29 1067.42,424.02 C1064.99,432.01 1063.00,438.87 1063.00,439.27 C1063.00,440.24 1209.75,440.22 1210.32,439.25 Z" fill="rgba(0,0,0,1)"/>
</svg>